# xmcd
# 
# Track frame offsets:
#     150
#     18148
#     37811
#     55661
#     70085
#     88119
#     103204
#     121333
#     145244
#     163077
#     178778
#     201623
#     228286
#     246961
# 
# Disc length: 3606
# 
# Revision: 1
# Processed by: cddbd v1.5.2PL0 Copyright (c) Steve Scherf et al.
# Submitted via: fre:ac v1.0.31
# 
DISCID=bf0e140e
DTITLE=Vika and Linda - Between Two Shores
DYEAR=2006
DGENRE=Acoustic Blues
TTITLE0=Chained To The Wheel
TTITLE1=When Will You Fall For Me
TTITLE2=Never Let Me Go
TTITLE3=I Know Where To Go To Feel Good
TTITLE4=House Of Love
TTITLE5=These Hands
TTITLE6=Blue Hour
TTITLE7=Holy Waters
TTITLE8=Ninety Nine Years
TTITLE9=Love Comes Easy
TTITLE10=Hard Love
TTITLE11=Grandpa's Song
TTITLE12=Parting Song
TTITLE13=Between Shores
EXTD=
EXTT0=
EXTT1=
EXTT2=
EXTT3=
EXTT4=
EXTT5=
EXTT6=
EXTT7=
EXTT8=
EXTT9=
EXTT10=
EXTT11=
EXTT12=
EXTT13=
PLAYORDER=
